<?xml version="1.0" encoding="UTF-8"?>
<svg xmlns="http://www.w3.org/2000/svg" xmlns:xlink="http://www.w3.org/1999/xlink" version="1.1" viewBox="0 0 358.8 75">
  <defs>
    <style>
      .cls-1 {
        fill: none;
      }

      .cls-2 {
        fill: #ff3057;
      }

      .cls-3 {
        fill: #f6f3df;
      }

      .cls-4 {
        clip-path: url(#clippath);
      }
    </style>
    <clipPath id="clippath">
      <rect class="cls-1" width="75" height="75"/>
    </clipPath>
  </defs>
  <!-- Generator: Adobe Illustrator 28.7.1, SVG Export Plug-In . SVG Version: 1.2.0 Build 142)  -->
  <g>
    <g id="Capa_1">
      <g class="cls-4">
        <path class="cls-2" d="M46.7,43.9c3.3,3.3,3.3,8.6,0,11.9-3.3,3.3-8.6,3.3-11.9,0-3.3-3.3-3.3-8.6,0-11.9l2.5-2.5h0s-2.9-2.9-2.9-2.9l-7.5,7.4-3.4-3.4,15-14.9-4.1-4.1-4.1,4.1,3,3-2.8,4-7-7,10.9-10.9,10.9,10.9-7.5,7.5,2.9,2.9h0s3.4,3.4,3.4,3.4h0s2.6,2.5,2.6,2.5h0ZM43.3,47.3l-2.6-2.5h0s-2.5,2.5-2.5,2.5c-1.4,1.4-1.4,3.7,0,5.1,1.4,1.4,3.7,1.4,5.1,0,1.4-1.4,1.4-3.7,0-5.1ZM45.3,40.4l6.4-6.5-3.4-3.4-7.1,7,4.1,2.9h0Z"/>
      </g>
      <path class="cls-3" d="M79.3,39h-3v-17h3v17ZM79.1,20.2h-2.5l2.4-4.2,2.7,1.2-2.6,3ZM89.9,28.8c-.4,0-.9.1-1.4.3-.5.2-1.2.6-1.9,1.2v8.8h-2.9v-12.7h2.7v1.7c.8-.7,1.5-1.2,2.2-1.5.7-.3,1.4-.5,2.1-.5,1.2,0,2.1.4,2.8,1.2.6.8.9,1.9.9,3.2v8.5h-2.9v-8.1c0-1.4-.6-2.1-1.7-2.1ZM105.7,39v-1.7c-.8.8-1.4,1.3-2,1.6-.6.3-1.1.4-1.7.4-1.4,0-2.4-.5-3.2-1.5-.8-1-1.1-2.5-1.1-4.4v-1.3c0-1.8.5-3.3,1.4-4.3.9-1.1,2.2-1.6,4-1.6s.9,0,1.3.1c.4,0,.9.2,1.3.3v-6h2.9v18.5h-2.7ZM100.6,33.3c0,1.1.2,1.9.6,2.5.4.5.9.8,1.6.8s.8-.1,1.2-.3c.4-.2,1-.7,1.6-1.3v-5.8c-.8-.3-1.6-.5-2.2-.5-1,0-1.7.3-2.1.9-.4.6-.6,1.4-.6,2.5v1.3ZM115.3,23.9h-3v-3h3v3ZM115.3,39h-2.9v-12.7h2.9v12.7ZM121.4,31.9v1.5c0,1.1.2,1.9.6,2.4.4.5,1,.8,1.8.8s.9,0,1.4-.1c.5-.1,1.1-.3,1.7-.5l.8,2.4c-.8.3-1.5.5-2.1.7-.7.1-1.3.2-2,.2-1.7,0-2.9-.5-3.8-1.6-.9-1.1-1.3-2.5-1.3-4.2v-1.5c0-1.8.4-3.2,1.3-4.2.9-1.1,2.2-1.6,3.8-1.6s1.3,0,1.9.2c.7.2,1.3.4,2.1.7l-.8,2.5c-1.2-.5-2.2-.7-3-.7s-1.5.3-1.8.8c-.4.5-.6,1.3-.6,2.4ZM140,38.3c-.9.3-1.7.6-2.4.8-.8.1-1.5.2-2.2.2-1.9,0-3.3-.5-4.3-1.6-1-1.1-1.5-2.5-1.5-4.2v-1.5c0-1.2.2-2.2.7-3.1.4-.9,1.1-1.5,1.8-2,.8-.5,1.7-.7,2.8-.7s1.7.2,2.5.5c.8.4,1.4.9,1.9,1.7.5.8.8,1.7.8,2.9s0,.7,0,1.1c0,.4-.1.8-.2,1.2h-7.3c0,1,.3,1.8.8,2.3.5.5,1.3.8,2.3.8s1.2,0,1.8-.2c.6-.1,1.2-.3,1.9-.6l.8,2.4ZM135,28.5c-.8,0-1.4.2-1.8.8-.4.5-.7,1.2-.7,2.1h4.8c0,0,0-.2,0-.2v-.2c0-.8-.2-1.4-.7-1.8-.5-.4-1-.6-1.6-.6ZM155.9,39v-1.7c-.8.8-1.4,1.3-2,1.6-.5.3-1.1.4-1.7.4-1.4,0-2.4-.5-3.2-1.5-.8-1-1.1-2.5-1.1-4.4v-1.3c0-1.8.5-3.3,1.4-4.3.9-1.1,2.2-1.6,4-1.6s.9,0,1.3.1c.4,0,.9.2,1.3.3v-6h2.9v18.5h-2.7ZM150.8,33.3c0,1.1.2,1.9.6,2.5.4.5.9.8,1.6.8s.8-.1,1.2-.3c.4-.2,1-.7,1.6-1.3v-5.8c-.8-.3-1.6-.5-2.2-.5s-1.7.3-2.1.9c-.4.6-.6,1.4-.6,2.5v1.3ZM172.2,38.3c-.9.3-1.7.6-2.5.8-.8.1-1.5.2-2.2.2-1.9,0-3.3-.5-4.3-1.6-1-1.1-1.4-2.5-1.4-4.2v-1.5c0-1.2.2-2.2.6-3.1.4-.9,1.1-1.5,1.9-2,.8-.5,1.7-.7,2.8-.7s1.7.2,2.5.5c.8.4,1.4.9,1.9,1.7.5.8.8,1.7.8,2.9s0,.7,0,1.1c0,.4-.1.8-.2,1.2h-7.4c0,1,.3,1.8.8,2.3.5.5,1.3.8,2.3.8s1.1,0,1.8-.2c.6-.1,1.2-.3,1.9-.6l.8,2.4ZM167.2,28.5c-.8,0-1.4.2-1.8.8-.4.5-.7,1.2-.7,2.1h4.8c0,0,0-.2,0-.2v-.2c0-.8-.2-1.4-.7-1.8s-1-.6-1.6-.6ZM181,39v-17h5.8c2,0,3.6.6,4.7,1.7,1.1,1.1,1.6,2.8,1.6,5v3.6c0,2.2-.5,3.9-1.6,5-1.1,1.1-2.6,1.7-4.7,1.7h-5.8ZM186.6,24.9h-2.6v11.2h2.6c1.2,0,2-.3,2.5-.9.5-.6.8-1.6.8-3v-3.6c0-1.4-.3-2.4-.8-3-.5-.6-1.3-.9-2.5-.9ZM199.5,23.9h-3v-3h3v3ZM199.5,39h-2.9v-12.7h2.9v12.7ZM213.9,40.3c0,1.3-.5,2.4-1.6,3.1-1.1.8-2.5,1.2-4.4,1.2s-1.8-.1-2.8-.3c-1-.2-1.9-.5-2.7-1l.8-2.3c.8.4,1.6.7,2.4.8.8.2,1.6.3,2.3.3s1.9-.1,2.4-.4c.6-.3.8-.7.8-1.1,0-.7-.4-1.1-1.3-1.1h-3c-.8,0-1.5-.1-2-.4-.5-.3-.9-.6-1.1-1-.2-.4-.4-.9-.4-1.4s.1-.9.3-1.3c.2-.4.5-.8.9-1.2-.6-.4-1.1-.9-1.4-1.5-.4-.6-.5-1.4-.5-2.2s.2-1.8.6-2.5c.4-.6,1-1.1,1.7-1.4.7-.3,1.5-.5,2.4-.5h.4c.3,0,.7,0,1,0,.3,0,.6,0,.9.2h4.5v2.4l-2.5-.4c.2.3.4.6.6,1,.1.4.2.9.2,1.4,0,.9-.2,1.6-.7,2.2-.4.6-1,1.1-1.7,1.4-.7.3-1.5.5-2.4.5h-.4c-.3,0-.7,0-1,0-.2.2-.3.4-.4.6,0,.2-.1.4-.1.6,0,.6.4.9,1.1.9h3.1c1.1,0,2.1.3,2.8.9.7.6,1.1,1.4,1.1,2.5ZM207.8,32.5c.5,0,1-.2,1.4-.5.4-.4.6-.9.6-1.5s-.2-1.2-.6-1.5c-.4-.4-.8-.5-1.4-.5h-.4c-.5,0-1,.2-1.4.5-.4.3-.6.9-.6,1.5s.2,1.2.6,1.5c.4.3.9.5,1.4.5h.4ZM219.6,23.9h-3v-3h3v3ZM219.6,39h-2.9v-12.7h2.9v12.7ZM231.2,38.6c-.4.2-.9.4-1.5.5-.6.1-1.1.2-1.7.2-1,0-1.7-.2-2.3-.6-.6-.4-1-1-1.3-1.7-.2-.7-.4-1.5-.4-2.4v-5.7h-2.1v-2.5h2.1v-3.3h2.9v3.3h3.9v2.5h-3.9v5.7c0,.8.1,1.3.4,1.6.3.3.7.4,1.3.4s.6,0,.9,0c.3,0,.7-.2,1.1-.3l.7,2.4ZM243.1,39.1c-.9,0-1.5-.2-2.1-.5-.5-.3-.9-.8-1.1-1.3-.7.7-1.4,1.2-2.1,1.5-.7.3-1.4.5-2.1.5-1.1,0-1.9-.4-2.5-1.1-.5-.7-.8-1.6-.8-2.7s.1-1.4.4-1.9c.3-.6.7-1,1.4-1.3s1.5-.5,2.6-.5.9,0,1.3.1c.5,0,.9.1,1.4.2v-1.5c0-.7-.2-1.2-.6-1.4-.4-.3-.9-.4-1.5-.4s-1.1,0-1.7.2c-.6.1-1.2.3-1.9.6l-.8-2.4c1.7-.7,3.2-1,4.6-1s2.2.2,2.8.6c.7.4,1.2,1,1.4,1.6s.4,1.4.4,2.2v4.9c0,.2,0,.5.2.7.1.2.4.3.8.3h.3v2.7h-.6ZM235.2,35.4c0,.4.1.8.3,1.1.2.2.5.4.9.4s.8,0,1.3-.3c.5-.2,1.1-.7,1.9-1.4v-1.1c-.9-.2-1.7-.2-2.6-.2s-1.1.1-1.4.4c-.3.3-.4.7-.4,1.2ZM246.1,35.4v-14.9h2.9v14.9c0,.2,0,.5.2.7.1.2.4.3.8.3h.4v2.7h-.7c-.9,0-1.7-.2-2.2-.5s-.9-.8-1.1-1.4c-.2-.6-.3-1.1-.3-1.8ZM256,23.9h-3v-3h3v3ZM255.9,39h-2.9v-12.7h2.9v12.7ZM267.8,36.5v2.5h-9v-2.2l5.3-7.9h-5.1v-2.5h8.5v2.2l-5.4,7.9h5.6ZM280.3,39.1c-.9,0-1.5-.2-2.1-.5-.5-.3-.9-.8-1.1-1.3-.7.7-1.4,1.2-2.1,1.5s-1.4.5-2.1.5c-1.1,0-1.9-.4-2.5-1.1-.5-.7-.8-1.6-.8-2.7s.1-1.4.4-1.9c.3-.6.7-1,1.4-1.3s1.5-.5,2.6-.5.9,0,1.4.1c.5,0,.9.1,1.4.2v-1.5c0-.7-.2-1.2-.6-1.4-.4-.3-.9-.4-1.5-.4s-1.1,0-1.6.2c-.6.1-1.2.3-1.9.6l-.8-2.4c1.7-.7,3.2-1,4.6-1s2.2.2,2.9.6c.7.4,1.2,1,1.4,1.6.3.7.4,1.4.4,2.2v4.9c0,.2,0,.5.2.7.2.2.4.3.9.3h.3v2.7h-.6ZM272.4,35.4c0,.4.1.8.3,1.1.2.2.5.4.9.4s.8,0,1.3-.3,1.1-.7,1.9-1.4v-1.1c-.9-.2-1.7-.2-2.6-.2s-1.1.1-1.4.4c-.3.3-.4.7-.4,1.2ZM285.5,31.9v1.5c0,1.1.2,1.9.6,2.4.4.5,1,.8,1.9.8s.9,0,1.4-.1c.5-.1,1.1-.3,1.7-.5l.8,2.4c-.8.3-1.5.5-2.1.7-.7.1-1.3.2-2,.2-1.7,0-2.9-.5-3.8-1.6-.9-1.1-1.3-2.5-1.3-4.2v-1.5c0-1.8.4-3.2,1.3-4.2.9-1.1,2.2-1.6,3.8-1.6s1.3,0,1.9.2c.7.2,1.3.4,2.1.7l-.8,2.5c-1.2-.5-2.2-.7-3-.7s-1.5.3-1.9.8c-.4.5-.6,1.3-.6,2.4ZM297.5,23.9h-3v-3h3v3ZM297.4,39h-2.9v-12.7h2.9v12.7ZM311.8,31.9v1.5c0,1.8-.5,3.2-1.5,4.2s-2.3,1.6-4.1,1.6-3.1-.5-4.1-1.6c-1-1.1-1.4-2.5-1.4-4.2v-1.5c0-1.8.5-3.2,1.4-4.2,1-1.1,2.3-1.6,4.1-1.6s3.1.5,4.1,1.6c1,1.1,1.5,2.5,1.5,4.2ZM308.8,31.9c0-1-.2-1.8-.7-2.4-.5-.6-1.1-.9-1.9-.9s-1.5.3-1.9.9c-.5.6-.7,1.4-.7,2.4v1.5c0,1,.2,1.8.7,2.4.4.6,1.1.9,1.9.9s1.5-.3,1.9-.9c.4-.6.7-1.4.7-2.4v-1.5ZM307.5,24.5h-2.5l2.4-4.1,2.7,1.1-2.6,3ZM321.2,28.8c-.4,0-.9.1-1.4.3-.5.2-1.2.6-1.9,1.2v8.8h-2.9v-12.7h2.7v1.7c.8-.7,1.5-1.2,2.2-1.5.7-.3,1.4-.5,2.1-.5,1.2,0,2.1.4,2.8,1.2.6.8,1,1.9,1,3.2v8.5h-2.9v-8.1c0-1.4-.6-2.1-1.7-2.1Z"/>
      <path class="cls-3" d="M75.7,58v-10.2h1.2c.7,1,1.3,1.9,1.8,2.9.6.9,1.1,1.9,1.6,2.9.5,1,1,2,1.5,3.1v-4.5c-.1,0-.1-4.4-.1-4.4h1v10.2h-1.2c-.8-1.6-1.5-3.1-2.3-4.6-.8-1.5-1.6-2.9-2.6-4.4v4.6c0,0,0,4.4,0,4.4h-1ZM90.4,58v-1c-.6.5-1.1.8-1.5,1-.4.2-.8.2-1.2.2-.6,0-1.1-.2-1.5-.6-.3-.4-.5-1-.5-1.8v-5.1h.9v4.9c0,.6,0,1,.3,1.3.2.3.5.4.9.4s.6,0,1-.2c.4-.2.9-.5,1.5-1v-5.4h.9v7.3h-.9ZM88.9,49.3h-.8l1.3-2.5.9.4-1.4,2.1ZM94.7,53.9v.9c0,.8.2,1.5.5,1.9.3.4.8.6,1.5.6s.6,0,1-.1c.3,0,.7-.2,1-.4l.3.7c-.8.4-1.5.6-2.4.6s-1.6-.3-2.1-.9c-.5-.6-.7-1.4-.7-2.5v-.9c0-1,.2-1.9.7-2.5.5-.6,1.2-.9,2.1-.9s.7,0,1.1.1.8.2,1.1.4l-.3.8c-.3-.1-.6-.2-.9-.3-.3,0-.6-.1-.9-.1-.7,0-1.2.2-1.5.6-.3.4-.5,1.1-.5,1.9ZM100.9,56.4v-9.5h.9v9.4c0,.3,0,.6.1.7,0,.1.3.2.6.2h.2v.8h-.3c-.5,0-.9-.1-1.2-.4-.2-.3-.4-.7-.4-1.2ZM109.9,57.6c-.4.2-.8.4-1.3.5-.4,0-.8.1-1.2.1-1,0-1.8-.3-2.3-.9-.5-.6-.7-1.4-.7-2.5v-.9c0-1,.2-1.8.8-2.4s1.2-.9,2.2-.9,1.4.2,1.9.7c.5.4.8,1.1.8,2s0,.9-.2,1.4h-4.4v.2c0,.8.2,1.5.5,1.9.3.4.9.6,1.6.6s.6,0,1-.1c.4,0,.8-.2,1.2-.4l.3.7ZM107.3,51.4c-.7,0-1.2.2-1.5.7-.3.4-.5,1-.5,1.8h3.7c0-.1,0-.2,0-.4,0-.1,0-.2,0-.3,0-.6-.2-1.1-.5-1.3-.3-.3-.7-.4-1.2-.4ZM117.8,53.9v.9c0,1.1-.3,1.9-.8,2.5-.5.6-1.3.9-2.2.9s-1.7-.3-2.2-.9c-.5-.6-.8-1.4-.8-2.5v-.9c0-1,.3-1.8.8-2.4.5-.6,1.3-.9,2.2-.9s1.7.3,2.2.9c.5.6.8,1.4.8,2.4ZM116.9,53.9c0-.8-.2-1.4-.5-1.9-.4-.4-.9-.7-1.5-.7s-1.2.2-1.5.7c-.4.4-.5,1.1-.5,1.9v.9c0,.8.2,1.5.5,1.9.4.4.9.6,1.5.6s1.2-.2,1.5-.6.5-1.1.5-1.9v-.9ZM125.3,47.8l3.3,7.9,3.3-7.9h1.2v10.2h-1v-8.8c.1,0-3.1,7.6-3.1,7.6h-1l-3.1-7.6v4.1c.1,0,.1,4.7.1,4.7h-1v-10.2h1.2ZM137.1,48.6h-1.1v-1.1h1.1v1.1ZM137,58h-.9v-7.3h.9v7.3ZM139.9,56.4v-9.5h.9v9.4c0,.3,0,.6.1.7.1.1.3.2.6.2h.2v.8h-.3c-.5,0-.9-.1-1.2-.4-.2-.3-.4-.7-.4-1.2ZM148.9,57.6c-.4.2-.8.4-1.3.5-.4,0-.8.1-1.2.1-1,0-1.8-.3-2.3-.9-.5-.6-.7-1.4-.7-2.5v-.9c0-1,.2-1.8.8-2.4s1.2-.9,2.2-.9,1.4.2,1.9.7c.5.4.8,1.1.8,2s0,.9-.2,1.4h-4.4v.2c0,.8.2,1.5.5,1.9.3.4.9.6,1.6.6s.6,0,1-.1c.4,0,.8-.2,1.2-.4l.3.7ZM146.3,51.4c-.7,0-1.2.2-1.5.7-.3.4-.5,1-.5,1.8h3.7c0-.1,0-.2,0-.4,0-.1,0-.2,0-.3,0-.6-.2-1.1-.5-1.3-.3-.3-.7-.4-1.2-.4ZM154.6,51.4c-.3,0-.7,0-1.1.2s-.9.5-1.5,1v5.4h-.9v-7.3h.9v1c.6-.5,1.1-.8,1.5-1s.9-.2,1.2-.2c.7,0,1.2.2,1.5.6.4.4.5,1,.5,1.8v5.1h-.9v-4.9c0-.6-.1-1-.3-1.3-.2-.3-.5-.4-1-.4ZM160.6,48.6h-1.1v-1.1h1.1v1.1ZM160.5,58h-.9v-7.3h.9v7.3ZM169,53.9v.9c0,1.1-.3,1.9-.8,2.5s-1.3.9-2.2.9-1.7-.3-2.2-.9c-.5-.6-.8-1.4-.8-2.5v-.9c0-1,.3-1.8.8-2.4.5-.6,1.3-.9,2.2-.9s1.7.3,2.2.9c.5.6.8,1.4.8,2.4ZM168,53.9c0-.8-.2-1.4-.5-1.9-.4-.4-.9-.7-1.5-.7s-1.2.2-1.5.7c-.4.4-.5,1.1-.5,1.9v.9c0,.8.2,1.5.5,1.9s.9.6,1.5.6,1.2-.2,1.5-.6.5-1.1.5-1.9v-.9ZM175.2,58v-10.2h1.2c.6,1,1.3,1.9,1.8,2.9.6.9,1.1,1.9,1.6,2.9s1,2,1.5,3.1v-4.5c-.1,0-.1-4.4-.1-4.4h1v10.2h-1.2c-.8-1.6-1.5-3.1-2.3-4.6-.8-1.5-1.6-2.9-2.6-4.4v4.6c0,0,0,4.4,0,4.4h-1ZM189.9,58v-1c-.6.5-1.1.8-1.5,1-.4.2-.8.2-1.2.2-.6,0-1.1-.2-1.5-.6-.3-.4-.5-1-.5-1.8v-5.1h.9v4.9c0,.6,0,1,.3,1.3.2.3.5.4.9.4s.6,0,1-.2c.4-.2.9-.5,1.5-1v-5.4h.9v7.3h-.9ZM198.2,58v-1c-.5.4-.9.7-1.3.9-.4.2-.8.3-1.3.3-.8,0-1.3-.3-1.8-.9s-.6-1.4-.6-2.5v-.9c0-1,.3-1.8.8-2.4.5-.6,1.3-.9,2.2-.9s.6,0,.9.1c.3,0,.6.1.9.3v-4h.9v11.1h-.9ZM194.2,54.8c0,.9.1,1.5.4,1.9.3.4.7.6,1.2.6s.7,0,1-.2c.4-.2.8-.5,1.3-1v-4.3c-.6-.3-1.2-.4-1.8-.4s-1.3.2-1.6.7c-.3.5-.5,1.1-.5,1.8v.9ZM207.5,53.9v.9c0,1.1-.3,1.9-.8,2.5s-1.3.9-2.2.9-1.7-.3-2.2-.9c-.5-.6-.8-1.4-.8-2.5v-.9c0-1,.3-1.8.8-2.4.5-.6,1.3-.9,2.2-.9s1.7.3,2.2.9c.5.6.8,1.4.8,2.4ZM206.6,53.9c0-.8-.2-1.4-.5-1.9-.4-.4-.9-.7-1.5-.7s-1.2.2-1.5.7c-.4.4-.5,1.1-.5,1.9v.9c0,.8.2,1.5.5,1.9s.9.6,1.5.6,1.2-.2,1.5-.6.5-1.1.5-1.9v-.9ZM211.6,57.3c.6,0,1-.1,1.3-.3.2-.2.4-.5.4-.9s-.1-.6-.3-.8c-.2-.2-.6-.4-1.1-.5l-.8-.2c-.6-.1-1-.4-1.3-.7-.3-.4-.4-.8-.4-1.3s0-.7.2-1c.2-.3.4-.6.8-.8.4-.2.8-.3,1.4-.3s.7,0,1.1.1c.4,0,.8.2,1.1.4l-.3.8c-.7-.3-1.4-.5-1.9-.5s-.8,0-1.1.3c-.2.2-.4.5-.4.9s0,.6.3.8c.2.2.5.4,1,.5l.8.2c1.2.3,1.8,1,1.8,2.1s0,.7-.2,1c-.2.3-.4.6-.8.8-.4.2-.9.3-1.5.3s-.8,0-1.2-.1c-.4,0-.8-.2-1.3-.4l.2-.8c.4.2.8.3,1.1.4.3,0,.7.1,1.1.1Z"/>
    </g>
  </g>
</svg>